<svg width="36" height="36" viewBox="0 0 36 36" fill="none" xmlns="http://www.w3.org/2000/svg">
<path d="M29.3338 19.0666C29.3338 26.3999 24.2005 30.0666 18.0992 32.1932C17.7797 32.3015 17.4326 32.2963 17.1165 32.1786C11.0005 30.0666 5.86719 26.3999 5.86719 19.0666V8.79993C5.86719 8.41095 6.02171 8.0379 6.29676 7.76285C6.57182 7.48779 6.94487 7.33327 7.33385 7.33327C10.2672 7.33327 13.9338 5.57327 16.4858 3.34394C16.7966 3.07847 17.1918 2.93262 17.6005 2.93262C18.0092 2.93262 18.4045 3.07847 18.7152 3.34394C21.2818 5.58794 24.9338 7.33327 27.8672 7.33327C28.2561 7.33327 28.6292 7.48779 28.9042 7.76285C29.1793 8.0379 29.3338 8.41095 29.3338 8.79993V19.0666Z" stroke="white" stroke-width="2.93333" stroke-linecap="round" stroke-linejoin="round"/>
<path d="M13.1992 17.6003L16.1325 20.5337L21.9992 14.667" stroke="white" stroke-width="2.93333" stroke-linecap="round" stroke-linejoin="round"/>
</svg>
