<svg width="32" height="32" viewBox="0 0 32 32" fill="none" xmlns="http://www.w3.org/2000/svg">
<path d="M13.334 16H18.6673" stroke="white" stroke-width="2.66667" stroke-linecap="round" stroke-linejoin="round"/>
<path d="M13.334 10.667H18.6673" stroke="white" stroke-width="2.66667" stroke-linecap="round" stroke-linejoin="round"/>
<path d="M18.6673 27.9997V23.9997C18.6673 23.2924 18.3864 22.6142 17.8863 22.1141C17.3862 21.614 16.7079 21.333 16.0007 21.333C15.2934 21.333 14.6151 21.614 14.115 22.1141C13.6149 22.6142 13.334 23.2924 13.334 23.9997V27.9997" stroke="white" stroke-width="2.66667" stroke-linecap="round" stroke-linejoin="round"/>
<path d="M7.99935 13.333H5.33268C4.62544 13.333 3.94716 13.614 3.44706 14.1141C2.94697 14.6142 2.66602 15.2924 2.66602 15.9997V25.333C2.66602 26.0403 2.94697 26.7185 3.44706 27.2186C3.94716 27.7187 4.62544 27.9997 5.33268 27.9997H26.666C27.3733 27.9997 28.0515 27.7187 28.5516 27.2186C29.0517 26.7185 29.3327 26.0403 29.3327 25.333V11.9997C29.3327 11.2924 29.0517 10.6142 28.5516 10.1141C28.0515 9.61396 27.3733 9.33301 26.666 9.33301H23.9993" stroke="white" stroke-width="2.66667" stroke-linecap="round" stroke-linejoin="round"/>
<path d="M8 28V6.66667C8 5.95942 8.28095 5.28115 8.78105 4.78105C9.28115 4.28095 9.95942 4 10.6667 4H21.3333C22.0406 4 22.7189 4.28095 23.219 4.78105C23.719 5.28115 24 5.95942 24 6.66667V28" stroke="white" stroke-width="2.66667" stroke-linecap="round" stroke-linejoin="round"/>
</svg>
