<svg width="32" height="32" viewBox="0 0 32 32" fill="none" xmlns="http://www.w3.org/2000/svg">
<path d="M10.666 8V16" stroke="white" stroke-width="2.66667" stroke-linecap="round" stroke-linejoin="round"/>
<path d="M20 8V16" stroke="white" stroke-width="2.66667" stroke-linecap="round" stroke-linejoin="round"/>
<path d="M2.66602 16H28.7993" stroke="white" stroke-width="2.66667" stroke-linecap="round" stroke-linejoin="round"/>
<path d="M23.9993 24H27.9993C27.9993 24 28.666 21.7333 29.066 20.2667C29.1993 19.7333 29.3327 19.2 29.3327 18.6667C29.3327 18.1333 29.1993 17.6 29.066 17.0667L27.1993 10.4C26.7993 9.06667 25.466 8 23.9993 8H5.33268C4.62544 8 3.94716 8.28095 3.44706 8.78105C2.94697 9.28115 2.66602 9.95942 2.66602 10.6667V24H6.66602" stroke="white" stroke-width="2.66667" stroke-linecap="round" stroke-linejoin="round"/>
<path d="M9.33268 26.6663C10.8054 26.6663 11.9993 25.4724 11.9993 23.9997C11.9993 22.5269 10.8054 21.333 9.33268 21.333C7.85992 21.333 6.66602 22.5269 6.66602 23.9997C6.66602 25.4724 7.85992 26.6663 9.33268 26.6663Z" stroke="white" stroke-width="2.66667" stroke-linecap="round" stroke-linejoin="round"/>
<path d="M12 24H18.6667" stroke="white" stroke-width="2.66667" stroke-linecap="round" stroke-linejoin="round"/>
<path d="M21.3327 26.6663C22.8054 26.6663 23.9993 25.4724 23.9993 23.9997C23.9993 22.5269 22.8054 21.333 21.3327 21.333C19.8599 21.333 18.666 22.5269 18.666 23.9997C18.666 25.4724 19.8599 26.6663 21.3327 26.6663Z" stroke="white" stroke-width="2.66667" stroke-linecap="round" stroke-linejoin="round"/>
</svg>
