<svg width="24" height="24" viewBox="0 0 24 24" fill="none" xmlns="http://www.w3.org/2000/svg">
<g clip-path="url(#clip0_714_180)">
<path d="M17.4864 -9.8604e-05C16.1252 0.0917763 14.6683 0.901776 13.7664 1.9949C12.977 2.95678 12.3152 4.36865 12.5664 5.8349C12.3414 5.76553 12.137 5.75803 11.8914 5.6699C11.222 5.43178 10.457 5.1749 9.5064 5.1749C7.61828 5.1749 5.68515 6.29803 4.4664 8.1749C2.69265 10.9012 3.0489 15.6993 5.7414 19.7999C6.21578 20.5199 6.7689 21.3055 7.4514 21.9299C8.1339 22.5543 8.9589 23.0305 9.9264 23.0399C10.7533 23.0493 11.3289 22.7737 11.8464 22.5449C12.3639 22.3162 12.8458 22.1137 13.7514 22.1099C13.757 22.1099 13.7608 22.1099 13.7664 22.1099C14.6683 22.1024 15.1352 22.3012 15.6414 22.5299C16.1477 22.7587 16.7177 23.0474 17.5464 23.0399C18.5327 23.0324 19.3708 22.4924 20.0664 21.8249C20.762 21.1574 21.3339 20.338 21.8064 19.6199C22.4833 18.5887 22.7552 18.0262 23.2764 16.8749C23.3308 16.7549 23.3327 16.6162 23.2802 16.4943C23.2295 16.3724 23.1302 16.2768 23.0064 16.2299C21.3002 15.5849 20.327 14.0755 20.1864 12.4799C20.0458 10.8843 20.7208 9.24178 22.4214 8.3099C22.547 8.2424 22.6352 8.12428 22.6652 7.98553C22.6933 7.84678 22.6595 7.70053 22.5714 7.5899C21.3508 6.07303 19.6333 5.1749 17.9514 5.1749C16.8789 5.1749 16.0914 5.42803 15.4464 5.6699C15.3395 5.71115 15.2608 5.7074 15.1614 5.7449C15.8158 5.3999 16.3933 4.92178 16.8264 4.3649C17.6139 3.35428 18.2214 1.91615 17.9964 0.404901C17.9589 0.157401 17.7358 -0.0188486 17.4864 -9.8604e-05ZM16.9764 1.1399C16.9445 2.10928 16.6127 3.05803 16.0614 3.7649C15.4839 4.5074 14.5127 5.02115 13.5714 5.1749C13.5883 4.24303 13.9558 3.2774 14.5164 2.5949C15.1052 1.8824 16.0802 1.36865 16.9764 1.1399ZM9.5064 6.1349C9.9264 6.1349 10.9014 6.33553 11.5614 6.5699C12.2214 6.80428 12.917 7.0799 13.7364 7.0799C14.537 7.0799 15.1708 6.8024 15.7914 6.5699C16.412 6.3374 17.0308 6.1349 17.9514 6.1349C19.1533 6.1349 20.4527 6.75928 21.4764 7.8449C19.8377 9.00178 19.0708 10.8055 19.2264 12.5549C19.382 14.323 20.447 16.0012 22.1964 16.8749C22.1939 16.8804 22.1914 16.8858 22.1889 16.8912C21.8143 17.7071 21.5646 18.2511 21.0114 19.0949C20.552 19.7943 20.0064 20.5593 19.4064 21.1349C18.8064 21.7105 18.1708 22.0743 17.5314 22.0799C16.9145 22.0855 16.5639 21.9018 16.0314 21.6599C15.4989 21.418 14.8108 21.1405 13.7514 21.1499C12.6939 21.1555 11.9964 21.4218 11.4564 21.6599C10.9164 21.898 10.562 22.0855 9.9414 22.0799C9.28515 22.0743 8.67578 21.7555 8.0964 21.2249C7.51703 20.6943 6.9939 19.9705 6.5364 19.2749C4.0164 15.4349 3.8139 10.9237 5.2614 8.6999C6.32265 7.06678 9.0864 6.1349 9.5064 6.1349Z" fill="black"/>
<path d="M9.5064 6.1349C9.9264 6.1349 10.9014 6.33553 11.5614 6.5699C12.2214 6.80428 12.917 7.0799 13.7364 7.0799C14.537 7.0799 15.1708 6.8024 15.7914 6.5699C16.412 6.3374 17.0308 6.1349 17.9514 6.1349C19.1533 6.1349 20.4527 6.75928 21.4764 7.8449C19.8377 9.00178 19.0708 10.8055 19.2264 12.5549C19.382 14.323 20.447 16.0012 22.1964 16.8749L22.1889 16.8912C21.8143 17.7071 21.5646 18.2511 21.0114 19.0949C20.552 19.7943 20.0064 20.5593 19.4064 21.1349C18.8064 21.7105 18.1708 22.0743 17.5314 22.0799C16.9145 22.0855 16.5639 21.9018 16.0314 21.6599C15.4989 21.418 14.8108 21.1405 13.7514 21.1499C12.6939 21.1555 11.9964 21.4218 11.4564 21.6599C10.9164 21.898 10.562 22.0855 9.9414 22.0799C9.28515 22.0743 8.67578 21.7555 8.0964 21.2249C7.51703 20.6943 6.9939 19.9705 6.5364 19.2749C4.0164 15.4349 3.8139 10.9237 5.2614 8.6999C6.32265 7.06678 9.0864 6.1349 9.5064 6.1349Z" fill="black"/>
<path d="M16.9764 1.1399C16.9445 2.10928 16.6127 3.05803 16.0614 3.7649C15.4839 4.5074 14.5127 5.02115 13.5714 5.1749C13.5883 4.24303 13.9558 3.2774 14.5164 2.5949C15.1052 1.8824 16.0802 1.36865 16.9764 1.1399Z" fill="black"/>
</g>
<defs>
<clipPath id="clip0_714_180">
<rect width="24" height="24" fill="white"/>
</clipPath>
</defs>
</svg>
