<svg width="126" height="126" viewBox="0 0 126 126" fill="none" xmlns="http://www.w3.org/2000/svg">
<rect width="126" height="126" fill="white"/>
<path d="M48.0204 96.9149L11.5154 60.4449C10.942 59.7754 10.6424 58.9141 10.6764 58.0333C10.7105 57.1524 11.0756 56.3168 11.699 55.6935C12.3223 55.0701 13.1579 54.705 14.0387 54.671C14.9196 54.6369 15.7809 54.9365 16.4504 55.5099L47.9504 87.0099L109.515 25.5149C110.185 24.9415 111.046 24.6419 111.927 24.676C112.808 24.71 113.644 25.0751 114.267 25.6985C114.89 26.3218 115.255 27.1574 115.289 28.0383C115.323 28.9191 115.024 29.7804 114.45 30.4499L48.0204 96.9149Z" fill="#34C45F"/>
</svg>
